<?xml version="1.0" encoding="UTF-8" standalone="no"?>
<svg
   xmlns:dc="http://purl.org/dc/elements/1.1/"
   xmlns:cc="http://creativecommons.org/ns#"
   xmlns:rdf="http://www.w3.org/1999/02/22-rdf-syntax-ns#"
   xmlns:svg="http://www.w3.org/2000/svg"
   xmlns="http://www.w3.org/2000/svg"
   xmlns:xlink="http://www.w3.org/1999/xlink"
   xmlns:sodipodi="http://sodipodi.sourceforge.net/DTD/sodipodi-0.dtd"
   xmlns:inkscape="http://www.inkscape.org/namespaces/inkscape"
   version="1.0"
   width="1486.000000pt"
   height="292.000000pt"
   viewBox="0 0 1486.000000 292.000000"
   preserveAspectRatio="xMidYMid meet"
   id="svg178"
   sodipodi:docname="logo_blk_col.svg"
   inkscape:version="1.0 (4035a4f, 2020-05-01)">
  <metadata
     id="metadata184">
    <rdf:RDF>
      <cc:Work
         rdf:about="">
        <dc:format>image/svg+xml</dc:format>
        <dc:type
           rdf:resource="http://purl.org/dc/dcmitype/StillImage" />
        <dc:title></dc:title>
      </cc:Work>
    </rdf:RDF>
  </metadata>
  <defs
     id="defs182">
    <linearGradient
       inkscape:collect="always"
       id="linearGradient1781">
      <stop
         style="stop-color:#ff5342;stop-opacity:1"
         offset="0"
         id="stop1777" />
      <stop
         style="stop-color:#db36cf;stop-opacity:1"
         offset="1"
         id="stop1779" />
    </linearGradient>
    <linearGradient
       inkscape:collect="always"
       id="linearGradient1775">
      <stop
         style="stop-color:#ff5342;stop-opacity:1"
         offset="0"
         id="stop1771" />
      <stop
         style="stop-color:#db36cf;stop-opacity:1"
         offset="1"
         id="stop1773" />
    </linearGradient>
    <linearGradient
       inkscape:collect="always"
       id="linearGradient1769">
      <stop
         style="stop-color:#ff5342;stop-opacity:1"
         offset="0"
         id="stop1765" />
      <stop
         style="stop-color:#db36cf;stop-opacity:1"
         offset="1"
         id="stop1767" />
    </linearGradient>
    <linearGradient
       id="linearGradient1176"
       inkscape:collect="always">
      <stop
         id="stop1172"
         offset="0"
         style="stop-color:#ff5342;stop-opacity:1" />
      <stop
         style="stop-color:#fb248b;stop-opacity:1"
         offset="0.51616883"
         id="stop1783" />
      <stop
         id="stop1174"
         offset="1"
         style="stop-color:#db36cf;stop-opacity:1" />
    </linearGradient>
    <linearGradient
       inkscape:collect="always"
       id="linearGradient1048-8-9">
      <stop
         style="stop-color:#ff5555;stop-opacity:1;"
         offset="0"
         id="stop1044" />
      <stop
         style="stop-color:#ff5555;stop-opacity:0;"
         offset="1"
         id="stop1046" />
    </linearGradient>
    <linearGradient
       inkscape:collect="always"
       xlink:href="#linearGradient1048-8-9"
       id="linearGradient1050"
       x1="5.556613"
       y1="1456.4914"
       x2="3320"
       y2="1456.4914"
       gradientUnits="userSpaceOnUse" />
    <linearGradient
       inkscape:collect="always"
       xlink:href="#linearGradient1048-8-9"
       id="linearGradient1099"
       x1="5.556613"
       y1="1456.4915"
       x2="3320"
       y2="1456.4915"
       gradientUnits="userSpaceOnUse" />
    <linearGradient
       gradientUnits="userSpaceOnUse"
       y2="779.72656"
       x2="3156.2261"
       y1="2689.7175"
       x1="108.36828"
       id="linearGradient1178"
       xlink:href="#linearGradient1176"
       inkscape:collect="always" />
    <linearGradient
       gradientUnits="userSpaceOnUse"
       y2="779.72656"
       x2="3156.2261"
       y1="2689.7175"
       x1="108.36828"
       id="linearGradient1180"
       xlink:href="#linearGradient1781"
       inkscape:collect="always" />
    <linearGradient
       gradientUnits="userSpaceOnUse"
       y2="779.72656"
       x2="3156.2261"
       y1="2689.7175"
       x1="108.36828"
       id="linearGradient1182"
       xlink:href="#linearGradient1775"
       inkscape:collect="always" />
    <linearGradient
       gradientUnits="userSpaceOnUse"
       y2="779.72656"
       x2="3156.2261"
       y1="2689.7175"
       x1="108.36828"
       id="linearGradient1184"
       xlink:href="#linearGradient1769"
       inkscape:collect="always" />
  </defs>
  <sodipodi:namedview
     inkscape:document-rotation="0"
     pagecolor="#ffffff"
     bordercolor="#666666"
     borderopacity="1"
     objecttolerance="10"
     gridtolerance="10"
     guidetolerance="10"
     inkscape:pageopacity="0"
     inkscape:pageshadow="2"
     inkscape:window-width="1251"
     inkscape:window-height="855"
     id="namedview180"
     showgrid="false"
     inkscape:zoom="0.55366756"
     inkscape:cx="1076.3169"
     inkscape:cy="127.83957"
     inkscape:window-x="123"
     inkscape:window-y="23"
     inkscape:window-maximized="0"
     inkscape:current-layer="g1042" />
  <g
     transform="translate(0.000000,292.000000) scale(0.100000,-0.100000)"
     fill="#000000"
     stroke="none"
     id="g176">
    <g
       id="g190"
       style="fill:#ffe680">
      <g
         id="g1042"
         style="fill:url(#linearGradient1050);fill-opacity:1;stroke:url(#linearGradient1099)">
        <path
           d="M116 2908 c-38 -4 -73 -11 -78 -16 -22 -22 -27 -212 -30 -1047 -4 -1219 -4 -1203 7 -1214 6 -5 144 -12 313 -16 349 -9 321 0 342 -115 13 -68 8 -220 -11 -399 -6 -51 -8 -95 -6 -97 15 -15 70 18 138 83 42 40 211 179 375 309 l299 236 160 -6 c88 -3 499 -6 913 -7 571 0 757 2 768 11 12 11 14 170 14 1136 l0 1124 -24 9 c-27 11 -3077 19 -3180 9z m2918 -300 c3 -18 9 -410 13 -871 8 -813 7 -839 -11 -849 -12 -6 -321 -11 -846 -13 l-829 -4 -163 -141 c-201 -174 -264 -218 -281 -201 -8 8 -12 57 -12 162 0 140 -2 151 -20 162 -13 8 -113 14 -304 17 l-285 5 -6 25 c-3 14 -5 402 -5 863 1 650 4 840 14 850 13 13 579 20 2043 25 l687 2 5 -32z"
           id="path142"
           style="fill:url(#linearGradient1178);fill-opacity:1;stroke:#00ffff;stroke-opacity:1" />
        <path
           d="M812 1980 c-41 -21 -83 -47 -94 -57 -50 -44 -72 -149 -48 -233 18 -65 73 -143 124 -177 113 -76 251 -14 324 145 19 43 25 73 26 126 0 138 -68 209 -219 230 -33 4 -52 -1 -113 -34z"
           id="path144"
           style="fill:url(#linearGradient1180);fill-opacity:1;stroke:url(#linearGradient1099)" />
        <path
           d="M1554 1972 c-52 -31 -89 -62 -109 -90 -27 -39 -30 -52 -30 -115 1 -59 6 -82 28 -125 54 -103 154 -172 229 -158 97 18 182 104 215 215 38 132 -31 269 -151 299 -95 24 -99 24 -182 -26z"
           id="path146"
           style="stroke:url(#linearGradient1099);fill:url(#linearGradient1182);fill-opacity:1" />
        <path
           d="M2318 1972 c-147 -111 -183 -247 -100 -382 36 -58 112 -110 161 -110 99 0 192 63 241 163 59 122 48 230 -34 305 -43 40 -78 54 -163 66 -39 6 -47 2 -105 -42z"
           id="path148"
           style="stroke:url(#linearGradient1099);fill:url(#linearGradient1184);fill-opacity:1" />
      </g>
    </g>
    <path
       d="m 4123,2325 c -57,-29 -96,-77 -113,-143 -31,-121 80,-252 215,-252 153,0 259,159 196,295 -52,113 -183,157 -298,100 z"
       id="path150" />
    <path
       d="m 7433,2325 c -57,-29 -96,-77 -113,-143 -31,-121 80,-252 215,-252 153,0 259,159 196,295 -52,113 -183,157 -298,100 z"
       id="path152" />
    <path
       d="m 11363,2325 c -57,-29 -96,-77 -113,-143 -31,-121 80,-252 215,-252 153,0 259,159 196,295 -52,113 -183,157 -298,100 z"
       id="path154" />
    <path
       d="m 8245,2101 -160,-48 -3,-111 -3,-112 h -99 -100 v -170 -170 h 100 100 v -256 c 0,-287 10,-361 61,-438 35,-52 102,-100 174,-122 55,-18 281,-31 339,-20 l 36,7 v 159 160 h -79 c -43,0 -92,5 -110,11 -56,20 -61,43 -61,284 v 215 h 125 125 v 170 170 h -125 -125 v 160 c 0,146 -2,160 -17,159 -10,0 -90,-22 -178,-48 z"
       id="path156" />
    <path
       d="m 10635,2101 -160,-48 -3,-111 -3,-112 h -99 -100 v -170 -170 h 100 100 v -256 c 0,-287 10,-361 61,-438 35,-52 102,-100 174,-122 55,-18 281,-31 339,-20 l 36,7 v 159 160 h -79 c -43,0 -92,5 -110,11 -56,20 -61,43 -61,284 v 215 h 125 125 v 170 170 h -125 -125 v 160 c 0,146 -2,160 -17,159 -10,0 -90,-22 -178,-48 z"
       id="path158" />
    <path
       d="m 5230,1844 c -61,-16 -121,-49 -162,-88 l -28,-25 v 49 50 H 4855 4670 V 1245 660 h 185 185 v 359 359 l 28,53 c 38,72 96,103 193,103 85,-1 143,-32 179,-96 l 25,-43 3,-367 3,-368 h 180 179 v 398 c 0,315 -3,410 -15,460 -51,217 -215,343 -444,341 -47,0 -111,-7 -141,-15 z"
       id="path160" />
    <path
       d="m 9251,1844 c -78,-21 -128,-45 -198,-97 -113,-84 -193,-212 -227,-364 -79,-355 154,-710 493,-751 142,-17 281,16 377,88 l 54,41 v -51 -50 h 180 180 v 585 585 h -180 -180 v -50 c 0,-27 -3,-50 -6,-50 -4,0 -22,13 -40,30 -76,67 -183,100 -314,99 -47,0 -109,-7 -139,-15 z m 340,-346 c 170,-72 208,-336 67,-464 -60,-54 -100,-68 -198,-68 -72,0 -92,4 -135,26 -101,53 -145,128 -144,248 0,41 6,92 13,113 53,147 236,214 397,145 z"
       id="path162" />
    <path
       d="m 12322,1840 c -232,-62 -410,-244 -457,-467 -29,-137 -12,-274 51,-403 52,-105 170,-223 274,-273 287,-137 636,-63 814,174 181,240 167,568 -33,782 -78,83 -154,134 -256,170 -109,40 -283,47 -393,17 z m 285,-345 c 43,-18 108,-77 129,-118 26,-49 36,-133 24,-192 -33,-160 -190,-248 -356,-200 -47,13 -69,27 -109,68 -58,60 -75,105 -75,198 0,130 74,224 205,260 41,11 137,3 182,-16 z"
       id="path164" />
    <path
       d="m 13890,1844 c -61,-16 -121,-49 -162,-88 l -28,-25 v 49 50 h -185 -185 V 1245 660 h 185 185 v 359 359 l 28,53 c 38,72 96,103 193,103 85,-1 143,-32 179,-96 l 25,-43 3,-367 3,-368 h 180 179 v 393 c 0,425 -5,479 -55,576 -75,149 -220,232 -404,230 -47,0 -111,-7 -141,-15 z"
       id="path166" />
    <path
       d="M 4040,1245 V 660 h 185 185 v 585 585 h -185 -185 z"
       id="path168" />
    <path
       d="m 5922,1818 c 3,-7 103,-271 224,-585 l 218,-573 h 207 c 156,0 208,3 212,13 198,516 437,1146 437,1151 0,3 -89,6 -199,6 h -199 l -56,-162 c -31,-90 -87,-255 -125,-368 -38,-114 -71,-198 -75,-190 -3,8 -59,173 -125,365 l -119,350 -202,3 c -160,2 -201,0 -198,-10 z"
       id="path170" />
    <path
       d="M 7350,1245 V 660 h 185 185 v 585 585 h -185 -185 z"
       id="path172" />
    <path
       d="M 11280,1245 V 660 h 185 185 v 585 585 h -185 -185 z"
       id="path174" />
  </g>
</svg>
